<?xml version="1.0" encoding="utf-8"?>
<svg viewBox="0.875 0.326 78.715 23.571" xmlns="http://www.w3.org/2000/svg">
  <g id="layer1" transform="matrix(1.710028, 0, 0, 1.806393, -4.306113, -2.801658)" style="">
    <g style="font-style:normal;font-variant:normal;font-weight:500;font-stretch:normal;font-size:10.5833px;line-height:1.25;font-family:'Chakra Petch';-inkscape-font-specification:'Chakra Petch Medium';fill:#ff1ff0;fill-opacity:1;stroke:none;stroke-width:0.265;stroke-miterlimit:4;stroke-dasharray:none" id="text835" aria-label="ANGLE">
      <path id="path843" style="font-style: normal; font-variant: normal; font-weight: 500; font-stretch: normal; font-family: &quot;Chakra Petch&quot;; fill-opacity: 1; stroke: none; stroke-width: 0.265; stroke-miterlimit: 4; stroke-dasharray: none; stroke-opacity: 1; fill: rgb(255, 247, 0);" d="m 12.229802,1.7899057 h 1.015997 L 15.91279,9.1982155 H 14.865044 L 14.208879,7.3143881 H 11.277305 L 10.62114,9.1982155 H 9.5733937 Z m 1.714494,4.6672352 -1.195912,-3.460739 h -0.02117 l -1.174746,3.460739 z"/>
      <path id="path845" style="font-style: normal; font-variant: normal; font-weight: 500; font-stretch: normal; font-family: &quot;Chakra Petch&quot;; fill-opacity: 1; stroke: none; stroke-width: 0.265; stroke-miterlimit: 4; stroke-dasharray: none; stroke-opacity: 1; fill: rgb(255, 247, 0);" d="m 16.864295,1.7899057 h 0.952497 l 3.672405,5.7361484 h 0.02117 V 1.7899057 h 0.973663 V 9.1982155 H 21.53153 L 17.859125,3.4620671 h -0.02117 v 5.7361484 h -0.973664 z"/>
      <path id="path847" style="font-style: normal; font-variant: normal; font-weight: 500; font-stretch: normal; font-family: &quot;Chakra Petch&quot;; fill-opacity: 1; stroke: none; stroke-width: 0.265; stroke-miterlimit: 4; stroke-dasharray: none; stroke-opacity: 1; fill: rgb(255, 247, 0);" d="M 23.972469,8.0128859 V 2.9752353 l 1.18533,-1.1853296 h 3.386655 l 1.142997,1.1429964 V 3.7689828 H 28.671454 V 3.2927343 L 28.057623,2.6789029 H 25.64463 l -0.656164,0.6561646 v 4.3179862 l 0.656164,0.6561646 h 2.391826 L 28.682037,7.663637 V 6.1396419 H 27.041626 V 5.2506447 h 2.645825 v 2.7622412 l -1.18533,1.1853296 h -3.344322 z"/>
      <path id="path849" style="font-style: normal; font-variant: normal; font-weight: 500; font-stretch: normal; font-family: &quot;Chakra Petch&quot;; fill-opacity: 1; stroke: none; stroke-width: 0.265; stroke-miterlimit: 4; stroke-dasharray: none; stroke-opacity: 1; fill: rgb(255, 247, 0);" d="m 31.064932,1.7899057 h 1.015997 v 6.5298959 h 3.746488 v 0.8784139 h -4.762485 z"/>
      <path id="path851" style="font-style: normal; font-variant: normal; font-weight: 500; font-stretch: normal; font-family: &quot;Chakra Petch&quot;; fill-opacity: 1; stroke: none; stroke-width: 0.265; stroke-miterlimit: 4; stroke-dasharray: none; stroke-opacity: 1; fill: rgb(255, 247, 0);" d="m 36.832005,1.7899057 h 4.974151 v 0.8889972 h -3.958154 v 2.3600758 h 3.651238 v 0.8784139 h -3.651238 v 2.3918257 h 3.958154 v 0.8889972 h -4.974151 z"/>
    </g>
    <g style="font-style:normal;font-variant:normal;font-weight:normal;font-stretch:normal;font-size:5.64444px;line-height:1.25;font-family:Norwester;-inkscape-font-specification:Norwester;font-variant-ligatures:normal;font-variant-caps:normal;font-variant-numeric:normal;font-variant-east-asian:normal;fill:#2e1fff;fill-opacity:1;stroke:none;stroke-width:0.264583;stroke-opacity:1" id="text839" aria-label="DESIGNS">
      <path id="path854" style="font-style: normal; font-weight: normal; font-stretch: normal; font-size: 5.64444px; font-family: &quot;Chakra Petch&quot;; font-variant: normal; fill-opacity: 1; stroke: none; stroke-width: 0.264583; stroke-opacity: 1; fill: rgb(255, 247, 0);" d="m 27.021645,10.828734 h 2.280353 l 0.620889,0.620889 v 2.709331 l -0.620889,0.620888 h -2.280353 z m 2.088442,3.567286 0.383822,-0.378177 v -2.427109 l -0.383822,-0.378178 h -1.659465 v 3.183464 z"/>
      <path id="path856" style="font-style: normal; font-weight: normal; font-stretch: normal; font-size: 5.64444px; font-family: &quot;Chakra Petch&quot;; font-variant: normal; fill-opacity: 1; stroke: none; stroke-width: 0.264583; stroke-opacity: 1; fill: rgb(255, 247, 0);" d="m 30.769906,10.828734 h 2.551286 v 0.383822 h -2.122309 v 1.388532 h 1.958621 v 0.383822 h -1.958621 v 1.41111 h 2.122309 v 0.383822 h -2.551286 z"/>
      <path id="path858" style="font-style: normal; font-weight: normal; font-stretch: normal; font-size: 5.64444px; font-family: &quot;Chakra Petch&quot;; font-variant: normal; fill-opacity: 1; stroke: none; stroke-width: 0.264583; stroke-opacity: 1; fill: rgb(255, 247, 0);" d="M 33.97048,14.260554 V 13.89931 h 0.423333 v 0.220133 l 0.270933,0.276577 h 1.354665 l 0.282222,-0.287866 v -0.886177 l -0.282222,-0.276578 h -1.518354 l -0.519289,-0.519288 v -1.078088 l 0.519289,-0.519289 h 1.659465 l 0.519289,0.519289 v 0.366888 H 36.262122 V 11.489134 L 35.9799,11.212556 h -1.292577 l -0.282222,0.276578 V 12.285 l 0.282222,0.276577 h 1.518355 l 0.519288,0.519289 v 1.168399 l -0.530577,0.530577 h -1.704621 z"/>
      <path id="path860" style="font-style: normal; font-weight: normal; font-stretch: normal; font-size: 5.64444px; font-family: &quot;Chakra Petch&quot;; font-variant: normal; fill-opacity: 1; stroke: none; stroke-width: 0.264583; stroke-opacity: 1; fill: rgb(255, 247, 0);" d="m 37.544997,10.828734 h 0.428978 v 3.951108 h -0.428978 z"/>
      <path id="path862" style="font-style: normal; font-weight: normal; font-stretch: normal; font-size: 5.64444px; font-family: &quot;Chakra Petch&quot;; font-variant: normal; fill-opacity: 1; stroke: none; stroke-width: 0.264583; stroke-opacity: 1; fill: rgb(255, 247, 0);" d="m 38.849393,14.158954 v -2.709331 l 0.620888,-0.620889 h 1.727199 l 0.59831,0.598311 v 0.361244 h -0.428977 v -0.220133 l -0.361244,-0.3556 h -1.343377 l -0.383822,0.378178 v 2.427109 l 0.383822,0.378177 h 1.320799 l 0.383822,-0.378177 v -0.914399 h -0.891822 v -0.383822 h 1.320799 v 1.439332 l -0.620888,0.620888 h -1.704621 z"/>
      <path id="path864" style="font-style: normal; font-weight: normal; font-stretch: normal; font-size: 5.64444px; font-family: &quot;Chakra Petch&quot;; font-variant: normal; fill-opacity: 1; stroke: none; stroke-width: 0.264583; stroke-opacity: 1; fill: rgb(255, 247, 0);" d="m 42.587953,10.828734 h 0.417688 l 2.060221,3.251198 h 0.01129 v -3.251198 h 0.406399 v 3.951108 h -0.417688 l -2.060221,-3.251197 h -0.01129 v 3.251197 h -0.406399 z"/>
      <path id="path866" style="font-style: normal; font-weight: normal; font-stretch: normal; font-size: 5.64444px; font-family: &quot;Chakra Petch&quot;; font-variant: normal; fill-opacity: 1; stroke: none; stroke-width: 0.264583; stroke-opacity: 1; fill: rgb(255, 247, 0);" d="M 46.306668,14.260554 V 13.89931 h 0.423333 v 0.220133 l 0.270933,0.276577 H 48.3556 l 0.282222,-0.287866 V 13.221977 L 48.3556,12.945399 h -1.518355 l -0.519288,-0.519288 v -1.078088 l 0.519288,-0.519289 h 1.659466 l 0.519288,0.519289 v 0.366888 H 48.598311 V 11.489134 L 48.316089,11.212556 H 47.023512 L 46.74129,11.489134 V 12.285 l 0.282222,0.276577 h 1.518354 l 0.519289,0.519289 v 1.168399 l -0.530578,0.530577 h -1.704621 z"/>
    </g>
    <path id="path861" d="M 8.3325015,1.731429 5.7142642,7.2350704 3.0300006,12.877502 h 19.3703614 2.338502" style="fill: none; stroke-width: 1.065; stroke-linecap: butt; stroke-linejoin: round; stroke-miterlimit: 4; stroke-dasharray: none; stroke-opacity: 1; fill-opacity: 1; stroke: rgb(255, 247, 0);"/>
  </g>
</svg>